<svg width="131" height="18" viewBox="0 0 131 18" fill="none" xmlns="http://www.w3.org/2000/svg">
<path d="M51.5079 5.31123H45.5819L47.2948 0H42.0238L36.3148 17.7055H47.2865C49.8239 17.7055 52.074 16.0586 52.8592 13.6268L54.2952 9.17546C54.9089 7.26833 53.4977 5.31123 51.5079 5.31123ZM49.0676 9.03388L47.8816 12.7149C47.489 13.9308 46.365 14.7532 45.0963 14.7532H42.5383L44.6314 8.26353H48.5118C48.9085 8.26353 49.1896 8.65287 49.0676 9.03388Z" fill="white"/>
<path d="M60.7667 0L59.6241 3.54151H64.8951L66.0377 0H60.7667Z" fill="white"/>
<path d="M55.0577 17.7055H60.3287L64.3248 5.31122H59.0538L55.0577 17.7055Z" fill="white"/>
<path d="M72.2303 8.26353H75.778L76.7305 5.31331H73.1828L74.8936 0H69.6227L65.1596 13.8413C64.5438 15.7484 65.9551 17.7055 67.9469 17.7055H73.8006L74.7511 14.7553H70.9389C70.5421 14.7553 70.2611 14.3659 70.3851 13.9849L72.2303 8.26353Z" fill="white"/>
<path d="M15.0552 6.17735L20.82 0H14.6419L9.88541 14.7553H5.93062C5.5339 14.7553 5.25082 14.3638 5.3748 13.9828L9.88128 0H4.61028L0.145129 13.8454C-0.468545 15.7505 0.940634 17.7055 2.92836 17.7055H14.2039L18.2 5.31123L15.0552 6.17735Z" fill="white"/>
<path d="M34.5585 0H22.4482L24.2293 6.17735L21.6424 5.31123L17.6462 17.7055H22.9172L24.8203 11.803H30.5231C33.0604 11.803 35.3085 10.1561 36.0937 7.72637L37.3396 3.86006C37.9554 1.95502 36.5462 0 34.5585 0ZM32.1141 3.72057L31.1161 6.81445C30.7235 8.03034 29.5995 8.85274 28.3308 8.85274H25.7728L27.6758 2.95022H31.5583C31.955 2.95022 32.236 3.34164 32.1141 3.72057Z" fill="white"/>
<path d="M86.6795 0.884857H90.4256L95.0768 12.3256L97.8703 0.884857H101.166L97.0727 17.7055H93.3266L88.7189 6.01912L85.8799 17.7055H82.5842L86.6795 0.884857Z" fill="white"/>
<path d="M103.891 0.884857H115.865L115.165 3.86214H106.889L105.887 7.89501H113.38L112.679 10.7536H105.187L103.497 17.7034H99.7981L103.891 0.884857Z" fill="white"/>
<path d="M121.884 3.86214H117.142L117.843 0.884857H131.001L130.3 3.86214H125.583L122.19 17.7055H118.491L121.884 3.86214Z" fill="white"/>
</svg>
