<svg width="131" height="19" viewBox="0 0 131 19" fill="none" xmlns="http://www.w3.org/2000/svg">
<path d="M51.5069 5.95845H45.5809L47.2938 0.647217H42.0228L36.3138 18.3527H47.2856C49.8229 18.3527 52.0731 16.7058 52.8582 14.274L54.2943 9.82267C54.9079 7.91554 53.4967 5.95845 51.5069 5.95845ZM49.0667 9.6811L47.8806 13.3621C47.4881 14.578 46.364 15.4004 45.0953 15.4004H42.5373L44.6304 8.91075H48.5108C48.9076 8.91075 49.1886 9.30009 49.0667 9.6811Z" fill="#2B2B2B"/>
<path d="M60.7658 0.647217L59.6231 4.18873H64.8941L66.0368 0.647217H60.7658Z" fill="#2B2B2B"/>
<path d="M55.0567 18.3527H60.3277L64.3238 5.95844H59.0528L55.0567 18.3527Z" fill="#2B2B2B"/>
<path d="M72.2293 8.91075H75.777L76.7296 5.96053H73.1818L74.8927 0.647217H69.6217L65.1586 14.4885C64.5429 16.3956 65.9541 18.3527 67.946 18.3527H73.7996L74.7501 15.4025H70.9379C70.5412 15.4025 70.2602 15.0131 70.3841 14.6321L72.2293 8.91075Z" fill="#2B2B2B"/>
<path d="M15.0542 6.82457L20.819 0.647217H14.6409L9.88443 15.4025H5.92964C5.53292 15.4025 5.24984 15.0111 5.37382 14.6301L9.8803 0.647217H4.60931L0.144153 14.4926C-0.469522 16.3977 0.939657 18.3527 2.92738 18.3527H14.2029L18.199 5.95845L15.0542 6.82457Z" fill="#2B2B2B"/>
<path d="M34.5575 0.647217H22.4472L24.2283 6.82457L21.6414 5.95845L17.6453 18.3527H22.9163L24.8193 12.4502H30.5221C33.0595 12.4502 35.3075 10.8033 36.0927 8.37359L37.3387 4.50728C37.9544 2.60223 36.5452 0.647217 34.5575 0.647217ZM32.1131 4.36778L31.1151 7.46166C30.7225 8.67756 29.5985 9.49996 28.3298 9.49996H25.7718L27.6748 3.59744H31.5573C31.954 3.59744 32.235 3.98886 32.1131 4.36778Z" fill="#2B2B2B"/>
<path d="M86.6786 1.53207H90.4247L95.0758 12.9728L97.8693 1.53207H101.165L97.0718 18.3527H93.3257L88.7179 6.66633L85.8789 18.3527H82.5832L86.6786 1.53207Z" fill="#2B2B2B"/>
<path d="M103.89 1.53207H115.864L115.164 4.50936H106.888L105.886 8.54223H113.379L112.678 11.4008H105.186L103.496 18.3506H99.7971L103.89 1.53207Z" fill="#2B2B2B"/>
<path d="M121.883 4.50936H117.141L117.842 1.53207H131L130.299 4.50936H125.582L122.189 18.3527H118.49L121.883 4.50936Z" fill="#2B2B2B"/>
</svg>
